<mxfile host="65bd71144e">
    <diagram id="IflduHiFwyjCdKWuIiaL" name="Page-1">
        <mxGraphModel dx="1062" dy="2139" grid="1" gridSize="10" guides="1" tooltips="1" connect="1" arrows="1" fold="1" page="1" pageScale="1" pageWidth="850" pageHeight="1100" math="0" shadow="0">
            <root>
                <mxCell id="0"/>
                <mxCell id="1" parent="0"/>
                <mxCell id="6" value="&lt;b style=&quot;font-size: 13px;&quot;&gt;Xem danh sách khoá học&lt;/b&gt;" style="ellipse;whiteSpace=wrap;html=1;fontSize=13;" vertex="1" parent="1">
                    <mxGeometry x="1070" y="-889" width="200" height="60" as="geometry"/>
                </mxCell>
                <mxCell id="8" value="&lt;b style=&quot;font-size: 13px;&quot;&gt;Xem danh sách bài kiểm tra&lt;/b&gt;" style="ellipse;whiteSpace=wrap;html=1;fontSize=13;" vertex="1" parent="1">
                    <mxGeometry x="1070" y="-818" width="200" height="60" as="geometry"/>
                </mxCell>
                <mxCell id="10" value="&lt;b style=&quot;font-size: 13px;&quot;&gt;Xem danh sách khoá học&lt;/b&gt;" style="ellipse;whiteSpace=wrap;html=1;fontSize=13;" vertex="1" parent="1">
                    <mxGeometry x="1070" y="-746" width="200" height="60" as="geometry"/>
                </mxCell>
                <mxCell id="11" value="&lt;b style=&quot;font-size: 13px;&quot;&gt;Đăng nhập&lt;/b&gt;" style="ellipse;whiteSpace=wrap;html=1;fontSize=13;" vertex="1" parent="1">
                    <mxGeometry x="1070" y="-675" width="200" height="60" as="geometry"/>
                </mxCell>
                <mxCell id="12" value="&lt;b style=&quot;font-size: 13px;&quot;&gt;Đăng ký&lt;br style=&quot;font-size: 13px;&quot;&gt;&lt;/b&gt;" style="ellipse;whiteSpace=wrap;html=1;fontSize=13;" vertex="1" parent="1">
                    <mxGeometry x="1070" y="-604" width="200" height="60" as="geometry"/>
                </mxCell>
                <mxCell id="13" value="&lt;b style=&quot;font-size: 13px;&quot;&gt;Tham gia khoá học&lt;br style=&quot;font-size: 13px;&quot;&gt;&lt;/b&gt;" style="ellipse;whiteSpace=wrap;html=1;fontSize=13;" vertex="1" parent="1">
                    <mxGeometry x="1330" y="-889" width="200" height="60" as="geometry"/>
                </mxCell>
                <mxCell id="14" value="&lt;b style=&quot;font-size: 13px;&quot;&gt;Làm bài kiểm tra&lt;br style=&quot;font-size: 13px;&quot;&gt;&lt;/b&gt;" style="ellipse;whiteSpace=wrap;html=1;fontSize=13;" vertex="1" parent="1">
                    <mxGeometry x="1330" y="-747" width="200" height="60" as="geometry"/>
                </mxCell>
                <mxCell id="15" value="&lt;b style=&quot;font-size: 13px;&quot;&gt;Xem kết quả học tập&lt;br style=&quot;font-size: 13px;&quot;&gt;&lt;/b&gt;" style="ellipse;whiteSpace=wrap;html=1;fontSize=13;" vertex="1" parent="1">
                    <mxGeometry x="1330" y="-675" width="200" height="60" as="geometry"/>
                </mxCell>
                <mxCell id="16" value="&lt;b style=&quot;font-size: 13px;&quot;&gt;Quản lý dự án&lt;br style=&quot;font-size: 13px;&quot;&gt;&lt;/b&gt;" style="ellipse;whiteSpace=wrap;html=1;fontSize=13;" vertex="1" parent="1">
                    <mxGeometry x="1070" y="-484" width="200" height="60" as="geometry"/>
                </mxCell>
                <mxCell id="17" value="&lt;b style=&quot;font-size: 13px;&quot;&gt;Học khoá học&lt;br style=&quot;font-size: 13px;&quot;&gt;&lt;/b&gt;" style="ellipse;whiteSpace=wrap;html=1;fontSize=13;" vertex="1" parent="1">
                    <mxGeometry x="1330" y="-818" width="200" height="60" as="geometry"/>
                </mxCell>
                <mxCell id="18" value="&lt;b style=&quot;font-size: 13px;&quot;&gt;Quản lý khoá học&lt;br style=&quot;font-size: 13px;&quot;&gt;&lt;/b&gt;" style="ellipse;whiteSpace=wrap;html=1;fontSize=13;" vertex="1" parent="1">
                    <mxGeometry x="1070" y="-413" width="200" height="60" as="geometry"/>
                </mxCell>
                <mxCell id="19" value="&lt;b style=&quot;font-size: 13px;&quot;&gt;Quản lý bài kiểm tra&lt;br style=&quot;font-size: 13px;&quot;&gt;&lt;/b&gt;" style="ellipse;whiteSpace=wrap;html=1;fontSize=13;" vertex="1" parent="1">
                    <mxGeometry x="1070" y="-341" width="200" height="60" as="geometry"/>
                </mxCell>
                <mxCell id="20" value="&lt;b style=&quot;font-size: 13px;&quot;&gt;Xem thống kê&lt;br style=&quot;font-size: 13px;&quot;&gt;&lt;/b&gt;" style="ellipse;whiteSpace=wrap;html=1;fontSize=13;" vertex="1" parent="1">
                    <mxGeometry x="1070" y="-270" width="200" height="60" as="geometry"/>
                </mxCell>
                <mxCell id="21" value="&lt;b style=&quot;font-size: 13px;&quot;&gt;Quản lý người dùng&lt;br style=&quot;font-size: 13px;&quot;&gt;&lt;/b&gt;" style="ellipse;whiteSpace=wrap;html=1;fontSize=13;" vertex="1" parent="1">
                    <mxGeometry x="1330" y="-489" width="200" height="60" as="geometry"/>
                </mxCell>
                <mxCell id="22" value="&lt;b style=&quot;font-size: 13px;&quot;&gt;Quản lý danh mục&lt;br style=&quot;font-size: 13px;&quot;&gt;&lt;/b&gt;" style="ellipse;whiteSpace=wrap;html=1;fontSize=13;" vertex="1" parent="1">
                    <mxGeometry x="1330" y="-417" width="200" height="60" as="geometry"/>
                </mxCell>
                <mxCell id="23" value="&lt;b style=&quot;font-size: 13px;&quot;&gt;Quản lý hệ thống&lt;br style=&quot;font-size: 13px;&quot;&gt;&lt;/b&gt;" style="ellipse;whiteSpace=wrap;html=1;fontSize=13;" vertex="1" parent="1">
                    <mxGeometry x="1330" y="-346" width="200" height="60" as="geometry"/>
                </mxCell>
                <mxCell id="31" style="edgeStyle=none;html=1;entryX=0;entryY=0.5;entryDx=0;entryDy=0;fontSize=13;" edge="1" parent="1" source="25" target="8">
                    <mxGeometry relative="1" as="geometry"/>
                </mxCell>
                <mxCell id="32" style="edgeStyle=none;html=1;entryX=0;entryY=0.5;entryDx=0;entryDy=0;fontSize=13;" edge="1" parent="1" source="25" target="10">
                    <mxGeometry relative="1" as="geometry"/>
                </mxCell>
                <mxCell id="33" style="edgeStyle=none;html=1;entryX=0;entryY=0.5;entryDx=0;entryDy=0;fontSize=13;" edge="1" parent="1" source="25" target="11">
                    <mxGeometry relative="1" as="geometry"/>
                </mxCell>
                <mxCell id="34" style="edgeStyle=none;html=1;entryX=0;entryY=0.5;entryDx=0;entryDy=0;fontSize=13;" edge="1" parent="1" source="25" target="12">
                    <mxGeometry relative="1" as="geometry"/>
                </mxCell>
                <mxCell id="35" style="edgeStyle=none;html=1;entryX=0;entryY=0.5;entryDx=0;entryDy=0;fontSize=13;" edge="1" parent="1" source="25" target="6">
                    <mxGeometry relative="1" as="geometry"/>
                </mxCell>
                <mxCell id="25" value="&lt;b&gt;Khách&lt;span style=&quot;color: rgba(0, 0, 0, 0); font-family: monospace; font-size: 0px; text-align: start; background-color: rgb(251, 251, 251);&quot;&gt;%3CmxGraphModel%3E%3Croot%3E%3CmxCell%20id%3D%220%22%2F%3E%3CmxCell%20id%3D%221%22%20parent%3D%220%22%2F%3E%3CUserObject%20label%3D%22%22%20plantUmlData%3D%22%7B%26%2310%3B%20%20%26quot%3Bdata%26quot%3B%3A%20%26quot%3B%40startuml%20LMS%20Use%20Case%20Diagram%5Cn%5Cnleft%20to%20right%20direction%5Cnskinparam%20packageStyle%20rectangle%5Cn%5Cnactor%20%5C%26quot%3BKh%C3%A1ch%5C%26quot%3B%20as%20Guest%5Cnactor%20%5C%26quot%3BH%E1%BB%8Dc%20vi%C3%AAn%5C%26quot%3B%20as%20Student%5Cnactor%20%5C%26quot%3BGi%E1%BA%A3ng%20vi%C3%AAn%5C%26quot%3B%20as%20Teacher%5Cnactor%20%5C%26quot%3BQu%E1%BA%A3n%20tr%E1%BB%8B%20vi%C3%AAn%5C%26quot%3B%20as%20Admin%5Cn%5Cnrectangle%20%5C%26quot%3BH%E1%BB%87%20th%E1%BB%91ng%20LMS%5C%26quot%3B%20%7B%5Cn%20%20'%20Guest%20Use%20Cases%5Cn%20%20usecase%20%5C%26quot%3BXem%20danh%20s%C3%A1ch%20kh%C3%B3a%20h%E1%BB%8Dc%5C%26quot%3B%20as%20UC1%5Cn%20%20usecase%20%5C%26quot%3BXem%20danh%20s%C3%A1ch%20b%C3%A0i%20ki%E1%BB%83m%20tra%5C%26quot%3B%20as%20UC2%5Cn%20%20usecase%20%5C%26quot%3BT%C3%ACm%20ki%E1%BA%BFm%20n%E1%BB%99i%20dung%5C%26quot%3B%20as%20UC3%5Cn%20%20usecase%20%5C%26quot%3B%C4%90%C4%83ng%20nh%E1%BA%ADp%5C%26quot%3B%20as%20UC4%5Cn%20%20usecase%20%5C%26quot%3B%C4%90%C4%83ng%20k%C3%BD%5C%26quot%3B%20as%20UC5%5Cn%5Cn%20%20'%20Student%20Use%20Cases%5Cn%20%20usecase%20%5C%26quot%3BTham%20gia%20kh%C3%B3a%20h%E1%BB%8Dc%5C%26quot%3B%20as%20UC6%5Cn%20%20usecase%20%5C%26quot%3BH%E1%BB%8Dc%20kh%C3%B3a%20h%E1%BB%8Dc%5C%26quot%3B%20as%20UC7%5Cn%20%20usecase%20%5C%26quot%3BL%C3%A0m%20b%C3%A0i%20ki%E1%BB%83m%20tra%5C%26quot%3B%20as%20UC8%5Cn%20%20usecase%20%5C%26quot%3BXem%20k%E1%BA%BFt%20qu%E1%BA%A3%20h%E1%BB%8Dc%20t%E1%BA%ADp%5C%26quot%3B%20as%20UC9%5Cn%5Cn%20%20'%20Teacher%20Use%20Cases%5Cn%20%20usecase%20%5C%26quot%3BQu%E1%BA%A3n%20l%C3%BD%20d%E1%BB%B1%20%C3%A1n%5C%26quot%3B%20as%20UC10%5Cn%20%20usecase%20%5C%26quot%3BQu%E1%BA%A3n%20l%C3%BD%20kh%C3%B3a%20h%E1%BB%8Dc%5C%26quot%3B%20as%20UC11%5Cn%20%20usecase%20%5C%26quot%3BQu%E1%BA%A3n%20l%C3%BD%20b%C3%A0i%20ki%E1%BB%83m%20tra%5C%26quot%3B%20as%20UC12%5Cn%20%20usecase%20%5C%26quot%3BXem%20th%E1%BB%91ng%20k%C3%AA%5C%26quot%3B%20as%20UC13%5Cn%5Cn%20%20'%20Admin%20Use%20Cases%5Cn%20%20usecase%20%5C%26quot%3BQu%E1%BA%A3n%20l%C3%BD%20ng%C6%B0%E1%BB%9Di%20d%C3%B9ng%5C%26quot%3B%20as%20UC14%5Cn%20%20usecase%20%5C%26quot%3BQu%E1%BA%A3n%20l%C3%BD%20danh%20m%E1%BB%A5c%5C%26quot%3B%20as%20UC15%5Cn%20%20usecase%20%5C%26quot%3BQu%E1%BA%A3n%20l%C3%BD%20h%E1%BB%87%20th%E1%BB%91ng%5C%26quot%3B%20as%20UC16%5Cn%7D%5Cn%5Cn'%20Guest%20Associations%5CnGuest%20--%26gt%3B%20UC1%5CnGuest%20--%26gt%3B%20UC2%5CnGuest%20--%26gt%3B%20UC3%5CnGuest%20--%26gt%3B%20UC4%5CnGuest%20--%26gt%3B%20UC5%5Cn%5Cn'%20Student%20Associations%5CnStudent%20--%26gt%3B%20UC6%5CnStudent%20--%26gt%3B%20UC7%5CnStudent%20--%26gt%3B%20UC8%5CnStudent%20--%26gt%3B%20UC9%5Cn%5Cn'%20Teacher%20Associations%5CnTeacher%20--%26gt%3B%20UC10%5CnTeacher%20--%26gt%3B%20UC11%5CnTeacher%20--%26gt%3B%20UC12%5CnTeacher%20--%26gt%3B%20UC13%5Cn%5Cn'%20Admin%20Associations%5CnAdmin%20--%26gt%3B%20UC14%5CnAdmin%20--%26gt%3B%20UC15%5CnAdmin%20--%26gt%3B%20UC16%5Cn%5Cn%40enduml%26quot%3B%2C%26%2310%3B%20%20%26quot%3Bformat%26quot%3B%3A%20%26quot%3Bsvg%26quot%3B%26%2310%3B%7D%22%20id%3D%222%22%3E%3CmxCell%20style%3D%22shape%3Dimage%3BnoLabel%3D1%3BverticalAlign%3Dtop%3Baspect%3Dfixed%3BimageAspect%3D0%3Bimage%3Ddata%3Aimage%2Fsvg%2Bxml%2CPD94bWwgdmVyc2lvbj0iMS4wIiBlbmNvZGluZz0idXMtYXNjaWkiIHN0YW5kYWxvbmU9Im5vIj8%2BPHN2ZyB4bWxucz0iaHR0cDovL3d3dy53My5vcmcvMjAwMC9zdmciIHhtbG5zOnhsaW5rPSJodHRwOi8vd3d3LnczLm9yZy8xOTk5L3hsaW5rIiBjb250ZW50U3R5bGVUeXBlPSJ0ZXh0L2NzcyIgaGVpZ2h0PSIxMTU3cHgiIHByZXNlcnZlQXNwZWN0UmF0aW89Im5vbmUiIHN0eWxlPSJ3aWR0aDozOTVweDtoZWlnaHQ6MTE1N3B4O2JhY2tncm91bmQ6I0ZGRkZGRjsiIHZlcnNpb249IjEuMSIgdmlld0JveD0iMCAwIDM5NSAxMTU3IiB3aWR0aD0iMzk1cHgiIHpvb21BbmRQYW49Im1hZ25pZnkiPjxkZWZzLz48Zz48IS0tY2x1c3RlciBIPyB0aD9uZyBMTVMtLT48ZyBpZD0iY2x1c3Rlcl9IJiM3ODc5OyB0aCYjNzg4OTtuZyBMTVMiPjxyZWN0IGZpbGw9Im5vbmUiIGhlaWdodD0iMTE0NCIgcng9IjIuNSIgcnk9IjIuNSIgc3R5bGU9InN0cm9rZTojMTgxODE4O3N0cm9rZS13aWR0aDoxLjA7IiB3aWR0aD0iMjQ4IiB4PSIxNDEiIHk9IjciLz48dGV4dCBmaWxsPSIjMDAwMDAwIiBmb250LWZhbWlseT0ic2Fucy1zZXJpZiIgZm9udC1zaXplPSIxNCIgZm9udC13ZWlnaHQ9ImJvbGQiIGxlbmd0aEFkanVzdD0ic3BhY2luZyIgdGV4dExlbmd0aD0iODQiIHg9IjIyMyIgeT0iMjIuMjM0NCI%2BSCYjNzg3OTsgdGgmIzc4ODk7bmcgTE1TPC90ZXh0PjwvZz48ZyBpZD0iZWxlbV9VQzEiPjxlbGxpcHNlIGN4PSIyNjUuMDE4MiIgY3k9IjYxLjgwMzYiIGZpbGw9IiNGMUYxRjEiIHJ4PSI5NC41MTgyIiByeT0iMjEuMzAzNiIgc3R5bGU9InN0cm9rZTojMTgxODE4O3N0cm9rZS13aWR0aDowLjU7Ii8%2BPHRleHQgZmlsbD0iIzAwMDAwMCIgZm9udC1mYW1pbHk9InNhbnMtc2VyaWYiIGZvbnQtc2l6ZT0iMTQiIGxlbmd0aEFkanVzdD0ic3BhY2luZyIgdGV4dExlbmd0aD0iMTU1IiB4PSIxODcuNTE4MiIgeT0iNjUuNTQ1OCI%2BWGVtIGRhbmggcyYjMjI1O2NoIGtoJiMyNDM7YSBoJiM3ODg1O2M8L3RleHQ%2BPC9nPjxnIGlkPSJlbGVtX1VDMiI%2BPGVsbGlwc2UgY3g9IjI2NC45MTU4IiBjeT0iMTQyLjk4MzIiIGZpbGw9IiNGMUYxRjEiIHJ4PSIxMDcuOTE1OCIgcnk9IjIzLjk4MzIiIHN0eWxlPSJzdHJva2U6IzE4MTgxODtzdHJva2Utd2lkdGg6MC41OyIvPjx0ZXh0IGZpbGw9IiMwMDAwMDAiIGZvbnQtZmFtaWx5PSJzYW5zLXNlcmlmIiBmb250LXNpemU9IjE0IiBsZW5ndGhBZGp1c3Q9InNwYWNpbmciIHRleHRMZW5ndGg9IjE4NCIgeD0iMTcyLjkxNTgiIHk9IjE0Ni43MjUzIj5YZW0gZGFuaCBzJiMyMjU7Y2ggYiYjMjI0O2kga2kmIzc4NzU7bSB0cmE8L3RleHQ%2BPC9nPjxnIGlkPSJlbGVtX1VDMyI%2BPGVsbGlwc2UgY3g9IjI2NC44MjU0IiBjeT0iMjIwLjc2NTEiIGZpbGw9IiNGMUYxRjEiIHJ4PSI3OS4zMjU0IiByeT0iMTguMjY1MSIgc3R5bGU9InN0cm9rZTojMTgxODE4O3N0cm9rZS13aWR0aDowLjU7Ii8%2BPHRleHQgZmlsbD0iIzAwMDAwMCIgZm9udC1mYW1pbHk9InNhbnMtc2VyaWYiIGZvbnQtc2l6ZT0iMTQiIGxlbmd0aEFkanVzdD0ic3BhY2luZyIgdGV4dExlbmd0aD0iMTIxIiB4PSIyMDQuMzI1NCIgeT0iMjI0LjUwNzMiPlQmIzIzNjttIGtpJiM3ODcxO20gbiYjNzg5NztpIGR1bmc8L3RleHQ%2BPC9nPjxnIGlkPSJlbGVtX1VDNCI%2BPGVsbGlwc2UgY3g9IjI2NS4wMDU0IiBjeT0iMjg4LjEwMTEiIGZpbGw9IiNGMUYxRjEiIHJ4PSI1Ni4wMDU0IiByeT0iMTMuNjAxMSIgc3R5bGU9InN0cm9rZTojMTgxODE4O3N0cm9rZS13aWR0aDowLjU7Ii8%2BPHRleHQgZmlsbD0iIzAwMDAwMCIgZm9udC1mYW1pbHk9InNhbnMtc2VyaWYiIGZvbnQtc2l6ZT0iMTQiIGxlbmd0aEFkanVzdD0ic3BhY2luZyIgdGV4dExlbmd0aD0iNjMiIHg9IjIzMy41MDU0IiB5PSIyOTEuODQzMyI%2BJiMyNzI7JiMyNTk7bmcgbmgmIzc4NTM7cDwvdGV4dD48L2c%2BPGcgaWQ9ImVsZW1fVUM1Ij48ZWxsaXBzZSBjeD0iMjY1LjEzMzUiIGN5PSIzNTAuMDk1NiIgZmlsbD0iI0YxRjFGMSIgcng9IjQ2LjEzMzUiIHJ5PSIxMy41OTU2IiBzdHlsZT0ic3Ryb2tlOiMxODE4MTg7c3Ryb2tlLXdpZHRoOjAuNTsiLz48dGV4dCBmaWxsPSIjMDAwMDAwIiBmb250LWZhbWlseT0ic2Fucy1zZXJpZiIgZm9udC1zaXplPSIxNCIgbGVuZ3RoQWRqdXN0PSJzcGFjaW5nIiB0ZXh0TGVuZ3RoPSI0OSIgeD0iMjQwLjYzMzUiIHk9IjM1My44Mzc3Ij4mIzI3MjsmIzI1OTtuZyBrJiMyNTM7PC90ZXh0PjwvZz48ZyBpZD0iZWxlbV9VQzYiPjxlbGxpcHNlIGN4PSIyNjQuODkwMiIgY3k9IjQxNy4xNzgiIGZpbGw9IiNGMUYxRjEiIHJ4PSI3OC44OTAyIiByeT0iMTguMTc4IiBzdHlsZT0ic3Ryb2tlOiMxODE4MTg7c3Ryb2tlLXdpZHRoOjAuNTsiLz48dGV4dCBmaWxsPSIjMDAwMDAwIiBmb250LWZhbWlseT0ic2Fucy1zZXJpZiIgZm9udC1zaXplPSIxNCIgbGVuZ3RoQWRqdXN0PSJzcGFjaW5nIiB0ZXh0TGVuZ3RoPSIxMjAiIHg9IjIwNC44OTAyIiB5PSI0MjAuOTIwMiI%2BVGhhbSBnaWEga2gmIzI0MzthIGgmIzc4ODU7YzwvdGV4dD48L2c%2BPGcgaWQ9ImVsZW1fVUM3Ij48ZWxsaXBzZSBjeD0iMjY0Ljg4NzgiIGN5PSI0ODUuMTc3NiIgZmlsbD0iI0YxRjFGMSIgcng9IjYzLjg4NzgiIHJ5PSIxNS4xNzc2IiBzdHlsZT0ic3Ryb2tlOiMxODE4MTg7c3Ryb2tlLXdpZHRoOjAuNTsiLz48dGV4dCBmaWxsPSIjMDAwMDAwIiBmb250LWZhbWlseT0ic2Fucy1zZXJpZiIgZm9udC1zaXplPSIxNCIgbGVuZ3RoQWRqdXN0PSJzcGFjaW5nIiB0ZXh0TGVuZ3RoPSI4NCIgeD0iMjIyLjg4NzgiIHk9IjQ4OC45MTk3Ij5IJiM3ODg1O2Mga2gmIzI0MzthIGgmIzc4ODU7YzwvdGV4dD48L2c%2BPGcgaWQ9ImVsZW1fVUM4Ij48ZWxsaXBzZSBjeD0iMjY0Ljc5NjEiIGN5PSI1NTMuMTU5MiIgZmlsbD0iI0YxRjFGMSIgcng9Ijc2LjI5NjEiIHJ5PSIxNy42NTkyIiBzdHlsZT0ic3Ryb2tlOiMxODE4MTg7c3Ryb2tlLXdpZHRoOjAuNTsiLz48dGV4dCBmaWxsPSIjMDAwMDAwIiBmb250LWZhbWlseT0ic2Fucy1zZXJpZiIgZm9udC1zaXplPSIxNCIgbGVuZ3RoQWRqdXN0PSJzcGFjaW5nIiB0ZXh0TGVuZ3RoPSIxMTQiIHg9IjIwNy43OTYxIiB5PSI1NTYuOTAxNCI%2BTCYjMjI0O20gYiYjMjI0O2kga2kmIzc4NzU7bSB0cmE8L3RleHQ%2BPC9nPjxnIGlkPSJlbGVtX1VDOSI%2BPGVsbGlwc2UgY3g9IjI2NS4wNTA3IiBjeT0iNjI0LjkxMDEiIGZpbGw9IiNGMUYxRjEiIHJ4PSI4NS4wNTA3IiByeT0iMTkuNDEwMSIgc3R5bGU9InN0cm9rZTojMTgxODE4O3N0cm9rZS13aWR0aDowLjU7Ii8%2BPHRleHQgZmlsbD0iIzAwMDAwMCIgZm9udC1mYW1pbHk9InNhbnMtc2VyaWYiIGZvbnQtc2l6ZT0iMTQiIGxlbmd0aEFkanVzdD0ic3BhY2luZyIgdGV4dExlbmd0aD0iMTM0IiB4PSIxOTguMDUwNyIgeT0iNjI4LjY1MjMiPlhlbSBrJiM3ODcxO3QgcXUmIzc4NDM7IGgmIzc4ODU7YyB0JiM3ODUzO3A8L3RleHQ%2BPC9nPjxnIGlkPSJlbGVtX1VDMTAiPjxlbGxpcHNlIGN4PSIyNjUuMTgzNCIgY3k9IjY5NS4yMzY3IiBmaWxsPSIjRjFGMUYxIiByeD0iNjYuNjgzNCIgcnk9IjE1LjczNjciIHN0eWxlPSJzdHJva2U6IzE4MTgxODtzdHJva2Utd2lkdGg6MC41OyIvPjx0ZXh0IGZpbGw9IiMwMDAwMDAiIGZvbnQtZmFtaWx5PSJzYW5zLXNlcmlmIiBmb250LXNpemU9IjE0IiBsZW5ndGhBZGp1c3Q9InNwYWNpbmciIHRleHRMZW5ndGg9IjkxIiB4PSIyMTkuNjgzNCIgeT0iNjk4Ljk3ODkiPlF1JiM3ODQzO24gbCYjMjUzOyBkJiM3OTIxOyAmIzIyNTtuPC90ZXh0PjwvZz48ZyBpZD0iZWxlbV9VQzExIj48ZWxsaXBzZSBjeD0iMjY0LjkzODQiIGN5PSI3NjIuOTg3NyIgZmlsbD0iI0YxRjFGMSIgcng9Ijc1LjQzODQiIHJ5PSIxNy40ODc3IiBzdHlsZT0ic3Ryb2tlOiMxODE4MTg7c3Ryb2tlLXdpZHRoOjAuNTsiLz48dGV4dCBmaWxsPSIjMDAwMDAwIiBmb250LWZhbWlseT0ic2Fucy1zZXJpZiIgZm9udC1zaXplPSIxNCIgbGVuZ3RoQWRqdXN0PSJzcGFjaW5nIiB0ZXh0TGVuZ3RoPSIxMTIiIHg9IjIwOC45Mzg0IiB5PSI3NjYuNzI5OSI%2BUXUmIzc4NDM7biBsJiMyNTM7IGtoJiMyNDM7YSBoJiM3ODg1O2M8L3RleHQ%2BPC9nPjxnIGlkPSJlbGVtX1VDMTIiPjxlbGxpcHNlIGN4PSIyNjUuMTc5NiIgY3k9IjgzNi4wMzU5IiBmaWxsPSIjRjFGMUYxIiByeD0iODguMTc5NiIgcnk9IjIwLjAzNTkiIHN0eWxlPSJzdHJva2U6IzE4MTgxODtzdHJva2Utd2lkdGg6MC41OyIvPjx0ZXh0IGZpbGw9IiMwMDAwMDAiIGZvbnQtZmFtaWx5PSJzYW5zLXNlcmlmIiBmb250LXNpemU9IjE0IiBsZW5ndGhBZGp1c3Q9InNwYWNpbmciIHRleHRMZW5ndGg9IjE0MSIgeD0iMTk0LjY3OTYiIHk9IjgzOS43NzgxIj5RdSYjNzg0MztuIGwmIzI1MzsgYiYjMjI0O2kga2kmIzc4NzU7bSB0cmE8L3RleHQ%2BPC9nPjxnIGlkPSJlbGVtX1VDMTMiPjxlbGxpcHNlIGN4PSIyNjQuNzgyNyIgY3k9IjkwNi43NTY1IiBmaWxsPSIjRjFGMUYxIiByeD0iNjQuMjgyNyIgcnk9IjE1LjI1NjUiIHN0eWxlPSJzdHJva2U6IzE4MTgxODtzdHJva2Utd2lkdGg6MC41OyIvPjx0ZXh0IGZpbGw9IiMwMDAwMDAiIGZvbnQtZmFtaWx5PSJzYW5zLXNlcmlmIiBmb250LXNpemU9IjE0IiBsZW5ndGhBZGp1c3Q9InNwYWNpbmciIHRleHRMZW5ndGg9Ijg1IiB4PSIyMjIuMjgyNyIgeT0iOTEwLjQ5ODciPlhlbSB0aCYjNzg4OTtuZyBrJiMyMzQ7PC90ZXh0PjwvZz48ZyBpZD0iZWxlbV9VQzE0Ij48ZWxsaXBzZSBjeD0iMjY1LjAxMzIiIGN5PSI5NzYuMjAyNiIgZmlsbD0iI0YxRjFGMSIgcng9IjgxLjUxMzIiIHJ5PSIxOC43MDI2IiBzdHlsZT0ic3Ryb2tlOiMxODE4MTg7c3Ryb2tlLXdpZHRoOjAuNTsiLz48dGV4dCBmaWxsPSIjMDAwMDAwIiBmb250LWZhbWlseT0ic2Fucy1zZXJpZiIgZm9udC1zaXplPSIxNCIgbGVuZ3RoQWRqdXN0PSJzcGFjaW5nIiB0ZXh0TGVuZ3RoPSIxMjYiIHg9IjIwMi4wMTMyIiB5PSI5NzkuOTQ0OCI%2BUXUmIzc4NDM7biBsJiMyNTM7IG5nJiM0MzI7JiM3OTAxO2kgZCYjMjQ5O25nPC90ZXh0PjwvZz48ZyBpZD0iZWxlbV9VQzE1Ij48ZWxsaXBzZSBjeD0iMjY0Ljg2NjgiIGN5PSIxMDQ3LjA3MzQiIGZpbGw9IiNGMUYxRjEiIHJ4PSI3NS44NjY4IiByeT0iMTcuNTczNCIgc3R5bGU9InN0cm9rZTojMTgxODE4O3N0cm9rZS13aWR0aDowLjU7Ii8%2BPHRleHQgZmlsbD0iIzAwMDAwMCIgZm9udC1mYW1pbHk9InNhbnMtc2VyaWYiIGZvbnQtc2l6ZT0iMTQiIGxlbmd0aEFkanVzdD0ic3BhY2luZyIgdGV4dExlbmd0aD0iMTEzIiB4PSIyMDguMzY2OCIgeT0iMTA1MC44MTU1Ij5RdSYjNzg0MztuIGwmIzI1MzsgZGFuaCBtJiM3OTA5O2M8L3RleHQ%2BPC9nPjxnIGlkPSJlbGVtX1VDMTYiPjxlbGxpcHNlIGN4PSIyNjQuOTM4NCIgY3k9IjExMTYuOTg3NyIgZmlsbD0iI0YxRjFGMSIgcng9Ijc1LjQzODQiIHJ5PSIxNy40ODc3IiBzdHlsZT0ic3Ryb2tlOiMxODE4MTg7c3Ryb2tlLXdpZHRoOjAuNTsiLz48dGV4dCBmaWxsPSIjMDAwMDAwIiBmb250LWZhbWlseT0ic2Fucy1zZXJpZiIgZm9udC1zaXplPSIxNCIgbGVuZ3RoQWRqdXN0PSJzcGFjaW5nIiB0ZXh0TGVuZ3RoPSIxMTIiIHg9IjIwOC45Mzg0IiB5PSIxMTIwLjcyOTkiPlF1JiM3ODQzO24gbCYjMjUzOyBoJiM3ODc5OyB0aCYjNzg4OTtuZzwvdGV4dD48L2c%2BPCEtLWVudGl0eSBHdWVzdC0tPjxnIGlkPSJlbGVtX0d1ZXN0Ij48ZWxsaXBzZSBjeD0iNTEuNSIgY3k9IjE5MiIgZmlsbD0iI0YxRjFGMSIgcng9IjgiIHJ5PSI4IiBzdHlsZT0ic3Ryb2tlOiMxODE4MTg7c3Ryb2tlLXdpZHRoOjAuNTsiLz48cGF0aCBkPSJNNTEuNSwyMDAgTDUxLjUsMjI3IE0zOC41LDIwOCBMNjQuNSwyMDggTTUxLjUsMjI3IEwzOC41LDI0MiBNNTEuNSwyMjcgTDY0LjUsMjQyICIgZmlsbD0ibm9uZSIgc3R5bGU9InN0cm9rZTojMTgxODE4O3N0cm9rZS13aWR0aDowLjU7Ii8%2BPHRleHQgZmlsbD0iIzAwMDAwMCIgZm9udC1mYW1pbHk9InNhbnMtc2VyaWYiIGZvbnQtc2l6ZT0iMTQiIGxlbmd0aEFkanVzdD0ic3BhY2luZyIgdGV4dExlbmd0aD0iMzUiIHg9IjM0IiB5PSIyNTYuNzM0NCI%2BS2gmIzIyNTtjaDwvdGV4dD48L2c%2BPCEtLWVudGl0eSBTdHVkZW50LS0%2BPGcgaWQ9ImVsZW1fU3R1ZGVudCI%2BPGVsbGlwc2UgY3g9IjUxLjUiIGN5PSI0OTAiIGZpbGw9IiNGMUYxRjEiIHJ4PSI4IiByeT0iOCIgc3R5bGU9InN0cm9rZTojMTgxODE4O3N0cm9rZS13aWR0aDowLjU7Ii8%2BPHBhdGggZD0iTTUxLjUsNDk4IEw1MS41LDUyNSBNMzguNSw1MDYgTDY0LjUsNTA2IE01MS41LDUyNSBMMzguNSw1NDAgTTUxLjUsNTI1IEw2NC41LDU0MCAiIGZpbGw9Im5vbmUiIHN0eWxlPSJzdHJva2U6IzE4MTgxODtzdHJva2Utd2lkdGg6MC41OyIvPjx0ZXh0IGZpbGw9IiMwMDAwMDAiIGZvbnQtZmFtaWx5PSJzYW5zLXNlcmlmIiBmb250LXNpemU9IjE0IiBsZW5ndGhBZGp1c3Q9InNwYWNpbmciIHRleHRMZW5ndGg9IjU2IiB4PSIyMy41IiB5PSI1NTQuNzM0NCI%2BSCYjNzg4NTtjIHZpJiMyMzQ7bjwvdGV4dD48L2c%2BPCEtLWVudGl0eSBUZWFjaGVyLS0%2BPGcgaWQ9ImVsZW1fVGVhY2hlciI%2BPGVsbGlwc2UgY3g9IjUxLjUiIGN5PSI3NzEiIGZpbGw9IiNGMUYxRjEiIHJ4PSI4IiByeT0iOCIgc3R5bGU9InN0cm9rZTojMTgxODE4O3N0cm9rZS13aWR0aDowLjU7Ii8%2BPHBhdGggZD0iTTUxLjUsNzc5IEw1MS41LDgwNiBNMzguNSw3ODcgTDY0LjUsNzg3IE01MS41LDgwNiBMMzguNSw4MjEgTTUxLjUsODA2IEw2NC41LDgyMSAiIGZpbGw9Im5vbmUiIHN0eWxlPSJzdHJva2U6IzE4MTgxODtzdHJva2Utd2lkdGg6MC41OyIvPjx0ZXh0IGZpbGw9IiMwMDAwMDAiIGZvbnQtZmFtaWx5PSJzYW5zLXNlcmlmIiBmb250LXNpemU9IjE0IiBsZW5ndGhBZGp1c3Q9InNwYWNpbmciIHRleHRMZW5ndGg9IjcwIiB4PSIxNi41IiB5PSI4MzUuNzM0NCI%2BR2kmIzc4NDM7bmcgdmkmIzIzNDtuPC90ZXh0PjwvZz48IS0tZW50aXR5IEFkbWluLS0%2BPGcgaWQ9ImVsZW1fQWRtaW4iPjxlbGxpcHNlIGN4PSI1MS41IiBjeT0iMTAxOCIgZmlsbD0iI0YxRjFGMSIgcng9IjgiIHJ5PSI4IiBzdHlsZT0ic3Ryb2tlOiMxODE4MTg7c3Ryb2tlLXdpZHRoOjAuNTsiLz48cGF0aCBkPSJNNTEuNSwxMDI2IEw1MS41LDEwNTMgTTM4LjUsMTAzNCBMNjQuNSwxMDM0IE01MS41LDEwNTMgTDM4LjUsMTA2OCBNNTEuNSwxMDUzIEw2NC41LDEwNjggIiBmaWxsPSJub25lIiBzdHlsZT0ic3Ryb2tlOiMxODE4MTg7c3Ryb2tlLXdpZHRoOjAuNTsiLz48dGV4dCBmaWxsPSIjMDAwMDAwIiBmb250LWZhbWlseT0ic2Fucy1zZXJpZiIgZm9udC1zaXplPSIxNCIgbGVuZ3RoQWRqdXN0PSJzcGFjaW5nIiB0ZXh0TGVuZ3RoPSI5MSIgeD0iNiIgeT0iMTA4Mi43MzQ0Ij5RdSYjNzg0MztuIHRyJiM3ODgzOyB2aSYjMjM0O248L3RleHQ%2BPC9nPjwhLS1saW5rIEd1ZXN0IHRvIFVDMS0tPjxnIGlkPSJsaW5rX0d1ZXN0X1VDMSI%2BPHBhdGggZD0iTTY5LjExLDE4My4zNyBDODIuNjgsMTU2LjczIDEwNC4zMSwxMjIuMTIgMTMzLDEwMSBDMTQ5LjM0LDg4Ljk3IDE2My42Mjg4LDgyLjM0IDE4My4wNjg4LDc2LjU2ICIgZmlsbD0ibm9uZSIgaWQ9Ikd1ZXN0LXRvLVVDMSIgc3R5bGU9InN0cm9rZTojMTgxODE4O3N0cm9rZS13aWR0aDoxLjA7Ii8%2BPHBvbHlnb24gZmlsbD0iIzE4MTgxOCIgcG9pbnRzPSIxODguODIsNzQuODUsMTc5LjA1MzMsNzMuNTgwOCwxODQuMDI3NCw3Ni4yNzUsMTgxLjMzMzIsODEuMjQ5MSwxODguODIsNzQuODUiIHN0eWxlPSJzdHJva2U6IzE4MTgxODtzdHJva2Utd2lkdGg6MS4wOyIvPjwvZz48IS0tbGluayBHdWVzdCB0byBVQzItLT48ZyBpZD0ibGlua19HdWVzdF9VQzIiPjxwYXRoIGQ9Ik02OS4yMywyMTIuODcgQzg1LjM2LDIwNS4xOCAxMTAuNTUsMTkzLjU5IDEzMywxODUgQzE1NC40MSwxNzYuODEgMTcyLjQ2ODMsMTcwLjY1NjMgMTkzLjgxODMsMTYzLjkxNjMgIiBmaWxsPSJub25lIiBpZD0iR3Vlc3QtdG8tVUMyIiBzdHlsZT0ic3Ryb2tlOiMxODE4MTg7c3Ryb2tlLXdpZHRoOjEuMDsiLz48cG9seWdvbiBmaWxsPSIjMTgxODE4IiBwb2ludHM9IjE5OS41NCwxNjIuMTEsMTg5Ljc1MzMsMTYxLjAwNSwxOTQuNzcyLDE2My42MTUyLDE5Mi4xNjE3LDE2OC42MzM5LDE5OS41NCwxNjIuMTEiIHN0eWxlPSJzdHJva2U6IzE4MTgxODtzdHJva2Utd2lkdGg6MS4wOyIvPjwvZz48IS0tbGluayBHdWVzdCB0byBVQzMtLT48ZyBpZD0ibGlua19HdWVzdF9VQzMiPjxwYXRoIGQ9Ik02OS4xLDIyMSBDOTQuMDMsMjIxIDEzNi43NSwyMjEgMTc5LjI1LDIyMSAiIGZpbGw9Im5vbmUiIGlkPSJHdWVzdC10by1VQzMiIHN0eWxlPSJzdHJva2U6IzE4MTgxODtzdHJva2Utd2lkdGg6MS4wOyIvPjxwb2x5Z29uIGZpbGw9IiMxODE4MTgiIHBvaW50cz0iMTg1LjI1LDIyMSwxNzYuMjUsMjE3LDE4MC4yNSwyMjEsMTc2LjI1LDIyNSwxODUuMjUsMjIxIiBzdHlsZT0ic3Ryb2tlOiMxODE4MTg7c3Ryb2tlLXdpZHRoOjEuMDsiLz48L2c%2BPCEtLWxpbmsgR3Vlc3QgdG8gVUM0LS0%2BPGcgaWQ9ImxpbmtfR3Vlc3RfVUM0Ij48cGF0aCBkPSJNNjkuMDksMjI5LjUzIEM4NS4xMSwyMzcuNSAxMTAuMjMsMjQ5LjI5IDEzMywyNTcgQzE2MS41NiwyNjYuNjcgMTg4LjcyNTksMjczLjIzNzMgMjE0LjQ3NTksMjc4LjU5NzMgIiBmaWxsPSJub25lIiBpZD0iR3Vlc3QtdG8tVUM0IiBzdHlsZT0ic3Ryb2tlOiMxODE4MTg7c3Ryb2tlLXdpZHRoOjEuMDsiLz48cG9seWdvbiBmaWxsPSIjMTgxODE4IiBwb2ludHM9IjIyMC4zNSwyNzkuODIsMjEyLjM1NCwyNzQuMDY5OSwyMTUuNDU0OSwyNzguODAxMSwyMTAuNzIzNywyODEuOTAyLDIyMC4zNSwyNzkuODIiIHN0eWxlPSJzdHJva2U6IzE4MTgxODtzdHJva2Utd2lkdGg6MS4wOyIvPjwvZz48IS0tbGluayBHdWVzdCB0byBVQzUtLT48ZyBpZD0ibGlua19HdWVzdF9VQzUiPjxwYXRoIGQ9Ik02OS4yMSwyNTAuMzEgQzgzLjM4LDI3Mi41IDEwNS43MywzMDEuOTkgMTMzLDMxOSBDMTU5LjI3LDMzNS4zOSAxODcuNDk0MywzNDIuMzE0MyAyMTQuMzU0MywzNDUuOTU0MyAiIGZpbGw9Im5vbmUiIGlkPSJHdWVzdC10by1VQzUiIHN0eWxlPSJzdHJva2U6IzE4MTgxODtzdHJva2Utd2lkdGg6MS4wOyIvPjxwb2x5Z29uIGZpbGw9IiMxODE4MTgiIHBvaW50cz0iMjIwLjMsMzQ2Ljc2LDIxMS45MTg3LDM0MS41ODc2LDIxNS4zNDUzLDM0Ni4wODg2LDIxMC44NDQ0LDM0OS41MTUyLDIyMC4zLDM0Ni43NiIgc3R5bGU9InN0cm9rZTojMTgxODE4O3N0cm9rZS13aWR0aDoxLjA7Ii8%2BPC9nPjwhLS1saW5rIFN0dWRlbnQgdG8gVUM2LS0%2BPGcgaWQ9ImxpbmtfU3R1ZGVudF9VQzYiPjxwYXRoIGQ9Ik03OS43NSw0OTEuMTkgQzk0LjQxLDQ3Ny42MyAxMTMuNDYsNDYyLjExIDEzMyw0NTIgQzE1NC4yMiw0NDEuMDIgMTczLjM3NTUsNDM0LjYzOTUgMTk1LjgwNTUsNDI5LjI1OTUgIiBmaWxsPSJub25lIiBpZD0iU3R1ZGVudC10by1VQzYiIHN0eWxlPSJzdHJva2U6IzE4MTgxODtzdHJva2Utd2lkdGg6MS4wOyIvPjxwb2x5Z29uIGZpbGw9IiMxODE4MTgiIHBvaW50cz0iMjAxLjY0LDQyNy44NiwxOTEuOTU1Myw0MjYuMDY5NSwxOTYuNzc3OSw0MjkuMDI2MiwxOTMuODIxMiw0MzMuODQ4OSwyMDEuNjQsNDI3Ljg2IiBzdHlsZT0ic3Ryb2tlOiMxODE4MTg7c3Ryb2tlLXdpZHRoOjEuMDsiLz48L2c%2BPCEtLWxpbmsgU3R1ZGVudCB0byBVQzctLT48ZyBpZD0ibGlua19TdHVkZW50X1VDNyI%2BPHBhdGggZD0iTTc5LjcyLDUxNC42MiBDMTEyLjk2LDUwOS4yOCAxNjQuMDE2LDUwMS4wNzE5IDIwNS44MzYsNDk0LjM1MTkgIiBmaWxsPSJub25lIiBpZD0iU3R1ZGVudC10by1VQzciIHN0eWxlPSJzdHJva2U6IzE4MTgxODtzdHJva2Utd2lkdGg6MS4wOyIvPjxwb2x5Z29uIGZpbGw9IiMxODE4MTgiIHBvaW50cz0iMjExLjc2LDQ5My40LDIwMi4yMzk0LDQ5MC44Nzg1LDIwNi44MjMzLDQ5NC4xOTMzLDIwMy41MDg2LDQ5OC43NzcyLDIxMS43Niw0OTMuNCIgc3R5bGU9InN0cm9rZTojMTgxODE4O3N0cm9rZS13aWR0aDoxLjA7Ii8%2BPC9nPjwhLS1saW5rIFN0dWRlbnQgdG8gVUM4LS0%2BPGcgaWQ9ImxpbmtfU3R1ZGVudF9VQzgiPjxwYXRoIGQ9Ik03OS43Miw1MjMuMzggQzExMC40LDUyOC4zMSAxNTUuMzU1OSw1MzUuNTM4NyAxOTUuODk1OSw1NDIuMDQ4NyAiIGZpbGw9Im5vbmUiIGlkPSJTdHVkZW50LXRvLVVDOCIgc3R5bGU9InN0cm9rZTojMTgxODE4O3N0cm9rZS13aWR0aDoxLjA7Ii8%2BPHBvbHlnb24gZmlsbD0iIzE4MTgxOCIgcG9pbnRzPSIyMDEuODIsNTQzLDE5My41NjgsNTM3LjYyMzYsMTk2Ljg4MzIsNTQyLjIwNzIsMTkyLjI5OTYsNTQ1LjUyMjQsMjAxLjgyLDU0MyIgc3R5bGU9InN0cm9rZTojMTgxODE4O3N0cm9rZS13aWR0aDoxLjA7Ii8%2BPC9nPjwhLS1saW5rIFN0dWRlbnQgdG8gVUM5LS0%2BPGcgaWQ9ImxpbmtfU3R1ZGVudF9VQzkiPjxwYXRoIGQ9Ik03OS42Nyw1NDcuNTUgQzk0LjMxLDU2MS40OSAxMTMuMzcsNTc3LjQ4IDEzMyw1ODggQzE1My40MSw1OTguOTQgMTcxLjU5NDIsNjA1LjQxNiAxOTMuNDE0Miw2MTEuMTA2ICIgZmlsbD0ibm9uZSIgaWQ9IlN0dWRlbnQtdG8tVUM5IiBzdHlsZT0ic3Ryb2tlOiMxODE4MTg7c3Ryb2tlLXdpZHRoOjEuMDsiLz48cG9seWdvbiBmaWxsPSIjMTgxODE4IiBwb2ludHM9IjE5OS4yMiw2MTIuNjIsMTkxLjUyMDYsNjA2LjQ3ODUsMTk0LjM4MTgsNjExLjM1ODMsMTg5LjUwMTksNjE0LjIxOTYsMTk5LjIyLDYxMi42MiIgc3R5bGU9InN0cm9rZTojMTgxODE4O3N0cm9rZS13aWR0aDoxLjA7Ii8%2BPC9nPjwhLS1saW5rIFRlYWNoZXIgdG8gVUMxMC0tPjxnIGlkPSJsaW5rX1RlYWNoZXJfVUMxMCI%2BPHBhdGggZD0iTTg2LjUxLDc2Mi45MiBDOTkuOSw3NTAuMjIgMTE2LjExLDczNi45NyAxMzMsNzI4IEMxNTUuOTksNzE1Ljc5IDE3Ny43OTM4LDcwOS4xNzI1IDIwMS43ODM4LDcwNC4yMjI1ICIgZmlsbD0ibm9uZSIgaWQ9IlRlYWNoZXItdG8tVUMxMCIgc3R5bGU9InN0cm9rZTojMTgxODE4O3N0cm9rZS13aWR0aDoxLjA7Ii8%2BPHBvbHlnb24gZmlsbD0iIzE4MTgxOCIgcG9pbnRzPSIyMDcuNjYsNzAzLjAxLDE5OC4wMzc0LDcwMC45MTEyLDIwMi43NjMyLDcwNC4wMjA0LDE5OS42NTQsNzA4Ljc0NjIsMjA3LjY2LDcwMy4wMSIgc3R5bGU9InN0cm9rZTojMTgxODE4O3N0cm9rZS13aWR0aDoxLjA7Ii8%2BPC9nPjwhLS1saW5rIFRlYWNoZXIgdG8gVUMxMS0tPjxnIGlkPSJsaW5rX1RlYWNoZXJfVUMxMSI%2BPHBhdGggZD0iTTg2Ljk1LDc5My45NyBDMTE4LjY3LDc4OC40MiAxNjAuNTA5Nyw3ODEuMTAzNiAxOTguNDE5Nyw3NzQuNDczNiAiIGZpbGw9Im5vbmUiIGlkPSJUZWFjaGVyLXRvLVVDMTEiIHN0eWxlPSJzdHJva2U6IzE4MTgxODtzdHJva2Utd2lkdGg6MS4wOyIvPjxwb2x5Z29uIGZpbGw9IiMxODE4MTgiIHBvaW50cz0iMjA0LjMzLDc3My40NCwxOTQuNzc1NSw3NzEuMDUwMywxOTkuNDA0OCw3NzQuMzAxNCwxOTYuMTUzNiw3NzguOTMwNywyMDQuMzMsNzczLjQ0IiBzdHlsZT0ic3Ryb2tlOiMxODE4MTg7c3Ryb2tlLXdpZHRoOjEuMDsiLz48L2c%2BPCEtLWxpbmsgVGVhY2hlciB0byBVQzEyLS0%2BPGcgaWQ9ImxpbmtfVGVhY2hlcl9VQzEyIj48cGF0aCBkPSJNODYuOTUsODA1Ljg2IEMxMTUuODYsODEwLjc5IDE1Mi4xNjUsODE2Ljk2MzYgMTg4LjEzNSw4MjMuMDgzNiAiIGZpbGw9Im5vbmUiIGlkPSJUZWFjaGVyLXRvLVVDMTIiIHN0eWxlPSJzdHJva2U6IzE4MTgxODtzdHJva2Utd2lkdGg6MS4wOyIvPjxwb2x5Z29uIGZpbGw9IiMxODE4MTgiIHBvaW50cz0iMTk0LjA1LDgyNC4wOSwxODUuODQ4NCw4MTguNjM3MSwxODkuMTIwOCw4MjMuMjUxMywxODQuNTA2Niw4MjYuNTIzNywxOTQuMDUsODI0LjA5IiBzdHlsZT0ic3Ryb2tlOiMxODE4MTg7c3Ryb2tlLXdpZHRoOjEuMDsiLz48L2c%2BPCEtLWxpbmsgVGVhY2hlciB0byBVQzEzLS0%2BPGcgaWQ9ImxpbmtfVGVhY2hlcl9VQzEzIj48cGF0aCBkPSJNODYuNDYsODM3LjU0IEM5OS44NSw4NTAuNDEgMTE2LjA3LDg2My44NSAxMzMsODczIEMxNTYuNTcsODg1LjczIDE3OS4yNDY2LDg5Mi42NDM5IDIwMy42NzY2LDg5Ny43NDM5ICIgZmlsbD0ibm9uZSIgaWQ9IlRlYWNoZXItdG8tVUMxMyIgc3R5bGU9InN0cm9rZTojMTgxODE4O3N0cm9rZS13aWR0aDoxLjA7Ii8%2BPHBvbHlnb24gZmlsbD0iIzE4MTgxOCIgcG9pbnRzPSIyMDkuNTUsODk4Ljk3LDIwMS41NTczLDg5My4yMTUyLDIwNC42NTU1LDg5Ny45NDgyLDE5OS45MjI1LDkwMS4wNDY0LDIwOS41NSw4OTguOTciIHN0eWxlPSJzdHJva2U6IzE4MTgxODtzdHJva2Utd2lkdGg6MS4wOyIvPjwvZz48IS0tbGluayBBZG1pbiB0byBVQzE0LS0%2BPGcgaWQ9ImxpbmtfQWRtaW5fVUMxNCI%2BPHBhdGggZD0iTTk3LjE4LDEwMjYuMjMgQzEwOC43MiwxMDIxLjI0IDEyMS4yMiwxMDE2LjE2IDEzMywxMDEyIEMxNTcuMzYsMTAwMy40MSAxNzkuMDM1Niw5OTcuMDk5NyAyMDIuNTI1Niw5OTAuOTQ5NyAiIGZpbGw9Im5vbmUiIGlkPSJBZG1pbi10by1VQzE0IiBzdHlsZT0ic3Ryb2tlOiMxODE4MTg7c3Ryb2tlLXdpZHRoOjEuMDsiLz48cG9seWdvbiBmaWxsPSIjMTgxODE4IiBwb2ludHM9IjIwOC4zMyw5ODkuNDMsMTk4LjYxMDMsOTg3LjgzOTksMjAzLjQ5Myw5OTAuNjk2NCwyMDAuNjM2Niw5OTUuNTc5MSwyMDguMzMsOTg5LjQzIiBzdHlsZT0ic3Ryb2tlOiMxODE4MTg7c3Ryb2tlLXdpZHRoOjEuMDsiLz48L2c%2BPCEtLWxpbmsgQWRtaW4gdG8gVUMxNS0tPjxnIGlkPSJsaW5rX0FkbWluX1VDMTUiPjxwYXRoIGQ9Ik05Ny4xLDEwNDcgQzEyMy42NCwxMDQ3IDE1Mi4wMSwxMDQ3IDE4Mi42NiwxMDQ3ICIgZmlsbD0ibm9uZSIgaWQ9IkFkbWluLXRvLVVDMTUiIHN0eWxlPSJzdHJva2U6IzE4MTgxODtzdHJva2Utd2lkdGg6MS4wOyIvPjxwb2x5Z29uIGZpbGw9IiMxODE4MTgiIHBvaW50cz0iMTg4LjY2LDEwNDcsMTc5LjY2LDEwNDMsMTgzLjY2LDEwNDcsMTc5LjY2LDEwNTEsMTg4LjY2LDEwNDciIHN0eWxlPSJzdHJva2U6IzE4MTgxODtzdHJva2Utd2lkdGg6MS4wOyIvPjwvZz48IS0tbGluayBBZG1pbiB0byBVQzE2LS0%2BPGcgaWQ9ImxpbmtfQWRtaW5fVUMxNiI%2BPHBhdGggZD0iTTk3LjE2LDEwNjcuODIgQzEwOC43LDEwNzIuODEgMTIxLjIsMTA3Ny44OCAxMzMsMTA4MiBDMTU4LjIzLDEwOTAuOCAxODEuMDIxLDEwOTcuMjE3NCAyMDUuMDUxLDExMDMuMjU3NCAiIGZpbGw9Im5vbmUiIGlkPSJBZG1pbi10by1VQzE2IiBzdHlsZT0ic3Ryb2tlOiMxODE4MTg7c3Ryb2tlLXdpZHRoOjEuMDsiLz48cG9seWdvbiBmaWxsPSIjMTgxODE4IiBwb2ludHM9IjIxMC44NywxMTA0LjcyLDIwMy4xMTY2LDEwOTguNjQ2NywyMDYuMDIwOCwxMTAzLjUwMTIsMjAxLjE2NjQsMTEwNi40MDU0LDIxMC44NywxMTA0LjcyIiBzdHlsZT0ic3Ryb2tlOiMxODE4MTg7c3Ryb2tlLXdpZHRoOjEuMDsiLz48L2c%2BPCEtLVNSQz1bWFBDX1J6R202Q1B0VnVmTmpwMUxRa3ZWc21NZndiMGFvZTNrQWg2UW5DSE1CaHVaVGYwR09raDBXOTFXUDQxZ1hSZks4ODZPa0FYWVNDTnR5M1NYWmtzSjRuQk95WngtdlZOcHZkY3A4aXlhbzNLS0JBS0k0YlFHTUI4ckhvOVpWOENCZENDNm5uYkVvS0EtTjE0bW52WWRBdThHWmtNd1dENTNnZ3ZZRVc4aXVCR2FHZGh6V1F4VW5WMjJnSGxVNzJ2YWNIMi1FcHZiVWxrUGZtNm05M1ljZkYzMHV6ODA4MGpUbEdzZXVvSGQ3QTZUWi1RWURvMmZoWnhLeFN1VUJLUm0yVzdTaXN4V04xMHVtT0E4TVlpNVlVajc2M3FYRUlJT0tuMzZFc0hLX1MxMFpVN2NabEVKdzFfcUt0Tjk4NkV3a2lYaFR6WXpDR3hWTUFlbGtLNnNsdEJXa2xoODgyYnZ3aVg5SUR3emx4a2VSTkVnanJ5dDNmWnMwOWN3VFFTcHI0cGRGY1ZfVjRqUXZ2T290M0ZQRkVIaUhkejMxbzVxZll4cFdRNEZrdnlmZ3FVTXlEbjRQbmsyMzBPeGlqUFRxRnRNTlVtaFRHazloaHcza2s4LWFfcTFoWVUtUTAzajdvQ1FULVZtd3ZJZjZ5ekNoRmJjX192aGRRVV9sLWRnS3ZzeC1oYUJGZmVFM01nTUF6Vkx6U3hfUjgyYW1RdnhUZXZVOC1KTl9MWThUU29tLU9LNWlqQlV0bHJjZXlEZ3RBZWNoTWhRZ2NRY2pyLXNMZFNsTWN4VWdHeXd6TTZkRlo5el9JUXEtZGhILVR4bDJiNU42N1U1WVVialdzZnJqZkEzZmtyb3JZeGRWbTAwXS0tPjwvZz48L3N2Zz4%3D%3B%22%20vertex%3D%221%22%20parent%3D%221%22%3E%3CmxGeometry%20x%3D%22920%22%20y%3D%22-350%22%20width%3D%22395%22%20height%3D%221157%22%20as%3D%22geometry%22%2F%3E%3C%2FmxCell%3E%3C%2FUserObject%3E%3C%2Froot%3E%3C%2FmxGraphModel%3E&lt;/span&gt;&lt;/b&gt;" style="shape=umlActor;verticalLabelPosition=bottom;verticalAlign=top;html=1;fontSize=13;" vertex="1" parent="1">
                    <mxGeometry x="930" y="-747" width="30" height="60" as="geometry"/>
                </mxCell>
                <mxCell id="37" style="edgeStyle=none;html=1;entryX=1;entryY=0.5;entryDx=0;entryDy=0;fontSize=13;" edge="1" parent="1" source="36" target="13">
                    <mxGeometry relative="1" as="geometry"/>
                </mxCell>
                <mxCell id="38" style="edgeStyle=none;html=1;entryX=1;entryY=0.5;entryDx=0;entryDy=0;fontSize=13;" edge="1" parent="1" source="36" target="17">
                    <mxGeometry relative="1" as="geometry"/>
                </mxCell>
                <mxCell id="39" style="edgeStyle=none;html=1;entryX=1;entryY=0.5;entryDx=0;entryDy=0;fontSize=13;" edge="1" parent="1" source="36" target="14">
                    <mxGeometry relative="1" as="geometry"/>
                </mxCell>
                <mxCell id="40" style="edgeStyle=none;html=1;entryX=1;entryY=0.5;entryDx=0;entryDy=0;fontSize=13;" edge="1" parent="1" source="36" target="15">
                    <mxGeometry relative="1" as="geometry"/>
                </mxCell>
                <mxCell id="36" value="Người dùng" style="shape=umlActor;verticalLabelPosition=bottom;verticalAlign=top;html=1;fontSize=13;fontStyle=1" vertex="1" parent="1">
                    <mxGeometry x="1590" y="-799" width="30" height="60" as="geometry"/>
                </mxCell>
                <mxCell id="43" style="edgeStyle=none;html=1;entryX=0;entryY=0.5;entryDx=0;entryDy=0;fontSize=13;" edge="1" parent="1" source="42" target="16">
                    <mxGeometry relative="1" as="geometry"/>
                </mxCell>
                <mxCell id="44" style="edgeStyle=none;html=1;entryX=0;entryY=0.5;entryDx=0;entryDy=0;fontSize=13;" edge="1" parent="1" source="42" target="18">
                    <mxGeometry relative="1" as="geometry"/>
                </mxCell>
                <mxCell id="45" style="edgeStyle=none;html=1;entryX=0;entryY=0.5;entryDx=0;entryDy=0;fontSize=13;" edge="1" parent="1" source="42" target="19">
                    <mxGeometry relative="1" as="geometry"/>
                </mxCell>
                <mxCell id="46" style="edgeStyle=none;html=1;entryX=0;entryY=0.5;entryDx=0;entryDy=0;fontSize=13;" edge="1" parent="1" source="42" target="20">
                    <mxGeometry relative="1" as="geometry"/>
                </mxCell>
                <mxCell id="42" value="Giảng viên" style="shape=umlActor;verticalLabelPosition=bottom;verticalAlign=top;html=1;fontSize=13;fontStyle=1" vertex="1" parent="1">
                    <mxGeometry x="945" y="-379" width="30" height="60" as="geometry"/>
                </mxCell>
                <mxCell id="48" style="edgeStyle=none;html=1;entryX=1;entryY=0.5;entryDx=0;entryDy=0;fontSize=13;" edge="1" parent="1" source="47" target="21">
                    <mxGeometry relative="1" as="geometry"/>
                </mxCell>
                <mxCell id="49" style="edgeStyle=none;html=1;entryX=1;entryY=0.5;entryDx=0;entryDy=0;fontSize=13;" edge="1" parent="1" source="47" target="22">
                    <mxGeometry relative="1" as="geometry"/>
                </mxCell>
                <mxCell id="50" style="edgeStyle=none;html=1;entryX=1;entryY=0.5;entryDx=0;entryDy=0;fontSize=13;" edge="1" parent="1" source="47" target="23">
                    <mxGeometry relative="1" as="geometry"/>
                </mxCell>
                <mxCell id="47" value="&lt;b&gt;Admin&lt;/b&gt;" style="shape=umlActor;verticalLabelPosition=bottom;verticalAlign=top;html=1;fontSize=13;" vertex="1" parent="1">
                    <mxGeometry x="1590" y="-424" width="30" height="60" as="geometry"/>
                </mxCell>
            </root>
        </mxGraphModel>
    </diagram>
</mxfile>